<svg height="448pt" viewBox="0 -3 448 448" width="448pt" xmlns="http://www.w3.org/2000/svg"><path d="m440 192h-432c-4.417969 0-8 3.582031-8 8s3.582031 8 8 8h432c4.417969 0 8-3.582031 8-8s-3.582031-8-8-8zm0 0"/><path d="m440 224h-432v88c.058594 48.578125 39.421875 87.941406 88 88h256c48.578125-.058594 87.941406-39.421875 88-88zm0 0"/><path d="m88 56c-8.835938 0-16 7.164062-16 16v8h32v-8c0-8.835938-7.164062-16-16-16zm0 0"/><path d="m361.921875 430.640625-11.28125 11.28125-26-25.921875h22.71875zm0 0"/><path d="m123.359375 416-26 25.921875-11.28125-11.28125 14.5625-14.640625zm0 0"/><path d="m96 48h-16c0-17.671875-14.328125-32-32-32s-32 14.328125-32 32v88h8v-8h16v32h-16v-8h-8v24h-8c-2.734375-.015625-5.445312.472656-8 1.441406v-129.441406c0-26.507812 21.492188-48 48-48s48 21.492188 48 48zm0 0"/><path d="m104 104h16v16h-16zm0 0"/><path d="m104 136h16v32h-16zm0 0"/><path d="m80 104h16v16h-16zm0 0"/><path d="m80 136h16v32h-16zm0 0"/><path d="m56 104h16v16h-16zm0 0"/><path d="m56 136h16v32h-16zm0 0"/></svg>