<svg width="620" height="193" viewBox="0 0 620 193" xmlns="http://www.w3.org/2000/svg"><title>logo</title><defs><radialGradient cx="-1.427%" cy="-9.542%" fx="-1.427%" fy="-9.542%" r="6.794%" id="a"><stop stop-color="#B5121B" offset="0%"/><stop stop-color="#B5121B" offset="100%"/></radialGradient><radialGradient cx="118.547%" cy="-17.359%" fx="118.547%" fy="-17.359%" r="15.773%" id="b"><stop stop-color="#E93F46" offset="0%"/><stop stop-color="#E93F46" offset="100%"/></radialGradient></defs><g fill="none"><path d="M80.5 35.8H26.1c-14.3 0-26 11.7-26 26v61c0 14.3 11.7 26 26 26h54.4c14.3 0 26-11.7 26-26v-61c0-14.3-11.6-26-26-26z" fill="#FFF"/><path d="M5.4 28.1v59.6c0 11.1 7.9 20.1 18.2 21.8h57.9C74.3 84.2 48.3 62 20.7 62h-6l9.7-17S38.3 20.3 49.1 5.7H28C15.4 6 5.4 16 5.4 28.1z" fill="url(#a)" transform="translate(0 35)"/><path d="M99.1 96.5c.4 1.1 2.5 6.7 2.5 7.1V17.2c-3.5-7.6-11.1-12.5-20-12.5h-7.1C64 19 46.5 43.2 43.7 47.1c0 0-.4.4 0 .4 25.4 6.5 46.1 24.7 55.4 49z" fill="url(#b)" transform="translate(0 35)"/><g fill="#332627"><path d="M532.916 57.15c9.8-9.5 22.384-14.407 36.384-14.407 13.6 0 26.216 5.127 35.616 14.927 9.5 9.8 14.79 23.243 14.79 36.843 0 13.6-5.39 26.217-14.79 35.617-9.5 9.5-22.016 14.418-35.616 14.418-14 0-26.243-4.618-36.043-14.418-9.55-10.105-15.452-18.895-15.75-36.484.596-17.62 5.609-27.095 15.409-36.495zm12.53 13.833c-6.487 7.032-8.64 13.314-8.99 22.832 0 9.5 2.362 14.936 8.632 22.444 6.357 6.354 14.028 10.035 23.528 10.035 9.5 0 16.103-2.374 22.803-9.074 6.7-6.7 10.173-14.6 10.173-24 0-9.1-2.236-14.772-8.173-21.552-6.757-6.501-12.696-10.613-24.803-10.511-12.106.102-18.05 5.185-23.17 9.826zM485.7 82.2c.7-3.2 2.1-7 4.5-11.2 2.5-4.2 5.2-7 9.1-8.8 3.8-1.4 8.4-2.5 13.6-2.5h1.4V41h-1.4c-7.7 0-14 1.1-19.6 3.2-5.6 2.1-10.9 5.6-15.8 10.5-4.2 4.2-7.4 8.8-9.1 14-2.1 5.2-2.8 13.3-2.8 24.5V143.3H484.9V98.9l-.3-4.1c0-4.9.4-9.1 1.1-12.6zM380.286 101.1c-3.2 0-4.878-.4-6.678 0-1.4.4-2.108 1.043-2.46 3.153 0 4.46 2.438 8.156 9.138 13.756 6.6 5.6 10.81 6.784 17.18 7.694 4.85.693 10.08-.98 15.462-2.585 3.863-1.151 8.86-4.244 13.06-7.044l12.134 13.033c-5.6 4.9-12.586 9.61-18.186 11.71-5.6 2.1-11.056 3.574-20.215 3.574-13.6 0-25.618-5.566-33.952-13.673-8.333-8.106-16.092-20.098-16.092-38.192 0-18.093 6.992-26.267 14.741-34.648 7.75-8.38 20.71-15.16 35.982-15.16 15.272 0 27.622 5.582 37.722 15.782 10.1 10.2 15.15 22.146 15.422 35.858 0 3.355-.273 5.742-.273 6.742h-72.985zm41.292-35.307c-5.781-4.115-12.002-5.86-19.37-5.86-7.366 0-15.033 3.783-20.512 7.606-5.76 4.609-8.728 8.273-9.209 12.546-.103.92-.091 1.868.033 2.86 0 1.605 2.758 1.857 5.998 1.857H426.418c2.8 0 6.386-.456 6.686-1.156.3-.7.136-1.397-.23-2.581-1.635-4.604-5.396-11.072-11.296-15.272zM336.8 45.9h-18.5v53.9c0 7-2.1 12.9-6.3 18.2-4.2 5.2-9.5 7.7-16.5 7.7-6.3 0-11.5-2.5-16.1-7.4-4.5-4.9-6.6-10.5-6.6-17.2V45.8h-18.9v56c0 11.2 3.8 21 11.2 29.4 7.7 8.1 16.8 12.2 27.3 12.2h2.8c4.5 0 9.5-1.4 14.3-4.2 1.4-.7 2.8-1.8 4.2-2.8l3.5-2.8-.4 4.5c-1.8 19.6-17.9 34.3-37.5 34.3-6.6 0-13.3-1.8-18.9-5.2v22.1c5.9 2.1 12.6 3.2 18.9 3.2 29.4 0 53.9-22.1 57.4-51.1V51l.1-5.1zM251.8 141.4c-6.3-26.9-27.3-48.3-54.3-55V86c2.8-3.8 19.6-27.3 29-40.3h-24.2c-9.5 13.3-26.9 37.1-26.9 37.1v.4-83h-19.2v143.2h19.2v-41.3H178.6c25.9 0 47.7 17.5 53.6 41.3h19.9v-.7c-.3-.6-.3-.9-.3-1.3"/></g></g></svg>
