<svg xmlns="http://www.w3.org/2000/svg" width="32" height="32" viewBox="0 0 384.679 307.696">
  <g id="Grupo_1" data-name="Grupo 1" transform="translate(-817.602 -331.016)">
    <path id="code" d="M167.613,307.433,130.951,296.8a7.223,7.223,0,0,1-4.928-8.955l82.038-282.6A7.223,7.223,0,0,1,217.016.315l36.662,10.638a7.223,7.223,0,0,1,4.928,8.955L176.568,302.5A7.2,7.2,0,0,1,167.613,307.433ZM99.1,240l26.144-27.887a7.212,7.212,0,0,0-.481-10.337l-54.452-47.9,54.452-47.9a7.161,7.161,0,0,0,.481-10.337L99.1,67.749a7.22,7.22,0,0,0-10.217-.3L2.274,148.585a7.164,7.164,0,0,0,0,10.518L88.88,240.3A7.166,7.166,0,0,0,99.1,240Zm196.652.361,86.606-81.2a7.164,7.164,0,0,0,0-10.518L295.749,67.388a7.278,7.278,0,0,0-10.217.3L259.387,95.576a7.212,7.212,0,0,0,.481,10.337l54.452,47.961-54.452,47.9a7.161,7.161,0,0,0-.481,10.337L285.531,240a7.222,7.222,0,0,0,10.217.361Z" transform="translate(817.627 330.979)" fill="#1441ba"/>
    <path id="code-2" data-name="code" d="M99.1,240l26.144-27.887a7.212,7.212,0,0,0-.481-10.337l-54.452-47.9,54.452-47.9a7.161,7.161,0,0,0,.481-10.337L99.1,67.749a7.22,7.22,0,0,0-10.217-.3L2.274,148.585a7.164,7.164,0,0,0,0,10.518l22.892,21.463L88.88,240.3A7.166,7.166,0,0,0,99.1,240Zm196.652.361,86.606-81.2a7.164,7.164,0,0,0,0-10.518L295.749,67.388a7.278,7.278,0,0,0-10.217.3L259.387,95.576a7.212,7.212,0,0,0,.481,10.337l54.452,47.961-54.452,47.9a7.161,7.161,0,0,0-.481,10.337L285.531,240a7.222,7.222,0,0,0,10.217.361Z" transform="translate(817.627 330.979)"/>
  </g>
</svg>
